<?xml version="1.0" encoding="UTF-8" standalone="no"?>
<!-- Kinetoscope logo, in the font Kode Mono, GitHub dark mode version -->
<svg
   stroke-linecap="square"
   stroke-miterlimit="10"
   version="1.1"
   viewBox="0 0 791.61 124.33"
   xmlns="http://www.w3.org/2000/svg">
  <path
     d="M 62.625,14.406 25.875,45 32.375,14.405999 H 17.859 L 0,98.406 h 14.516 l 7.1875,-33.844001 7.9844,-6.4688 19.031,40.312001 h 15.969 l -22.703,-50.156 39.953,-33.844 z m 32.328,15.593999 -2.7969,13.094 h 13.312 l 2.5,5.265601 -7.8594,36.968999 h -21.969 l -2.7812,13.078 h 57.844 l 2.7812,-13.078 h -21.969 l 8.3906,-39.484 -7.2969,-15.844 z m 18.266,-13.203 L 116.7971,0 h 16.812 l -3.5781,16.796999 z m 48.203,15.484 L 147.36,98.406 h 14.516 l 10.656,-50.156 2.7188,-2.5312 h 23.281 l 2.3594,5.1719 -10.094,47.516 h 14.531 L 215.9842,48.250699 208.578,32.2817 h -26.031 l -7.4531,3.9688 0.84375,-3.9688 z m 83.328,-0.23438 -13.031,11.047001 -8.4375,39.719 7.125,15.594 h 35.391 l 12.016,-10.203 -6.1719,-10.562 -8.0469,6.8438 h -23.047 l -2.625,-5.640601 1.8438,-8.6406 h 21.953 l 25.891,-21.844 -7.4531,-16.312 z m -0.45313,16.797001 3.3594,-2.875 h 20.891 l 1.3438,2.75 -10.891,9.375 h -16.672 z m 77.781,-40.203 h 14.516 l -5,23.531 h 19.453 l -2.875,13.547 h -19.453 l -7.2188,33.969 2.25,5.1562 h 10.094 l 10.328,-8.5156 5.3125,11.156 -12.516,10.922 h -23.172 l -7.4219,-15.844 7.8281,-36.844 h -9.5938 l 2.875,-13.547 h 9.5938 z m 66.5,23.641 h 36.125 l 7.375,16.078 -8.2188,38.640999 -13.453,11.406001 h -36 l -7.5,-16.078 8.2031,-38.641001 z m -6.7188,47.406 2.375,5.1562 h 23.281 l 2.6562,-2.2812 6.7188,-31.672 -2.3594,-5.1719 h -23.172 l -2.8281,2.5312 z m 79.969,-48.234 h 35.047 l 5.625,11.875 -11.422,9.7188 -3.9688,-8.4062 h -22.094 l -2.5625,1.9219 -1.1719,5.5312 2.3125,4.9062 h 28.078 l 6.4062,13.922 -3.5938,16.922 -11.719,10.562 h -39.969 l -4.3281,-10.078001 11.406,-9.609399 2.875,6.125 h 26.641 l 1.4844,-1.3125 2.0781,-9.7188 -1.5781,-3.3594 h -28.078 l -7.0156,-15.484001 2.8125,-13.202999 z m 70.922,0.59375 h 36 l 6.8125,14.766 -11.422,9.7188 -4.9531,-10.562 h -22.922 l -3.2188,2.75 -6.7656,31.812 2.5469,5.5156 h 23.031 l 9.9375,-8.2812 4.7344,10.438 -12.016,10.203 h -36 l -7.2031,-15.719 8.4062,-39.594 z m 71.82805,0.23438 h 36.125 l 7.375,16.078 -8.2188,38.641 -13.453,11.406 h -36 l -7.50005,-16.078 8.20305,-38.641 z m -6.7188,47.406 2.375,5.1562 h 23.281 l 2.6561,-2.2812 6.7189,-31.672 -2.3594,-5.1719 h -23.1721 l -2.8281,2.5312 z m 88.437,-47.406 -7.2031,3.9688 0.8437,-3.9688 h -14.516 l -19.578,92.047 h 14.516 l 6.3281,-29.766 5.7969,3.8438 h 25.672 l 13.469,-11.406 8.2188,-38.641001 -7.1406,-16.077999 z m -16.438,47.406 6.7031,-31.562 2.7656,-2.2812 h 23.047 l 2.3594,5.2812 -6.7031,31.562 -2.6562,2.2812 h -23.156 z m 78.891,-47.641 -13.031,11.047 -8.4375,39.719 7.125,15.594 h 35.391 l 12.016,-10.203 -6.172,-10.562 -8.0468,6.8438 h -23.047 l -2.625,-5.6406 1.8437,-8.6406 h 21.953 l 25.891,-21.844001 -7.453,-16.312 z m -0.4532,16.797 3.3594,-2.875 h 20.891 l 1.3438,2.75 -10.891,9.375 h -16.672 z"
     style="fill:#ffffff" />
</svg>
